<svg xmlns="http://www.w3.org/2000/svg" viewBox="0 0 1000 488" width="1000" height="488" role="img" aria-labelledby="t d">
<title id="t">Tanu Sree Reddy Gavinnolla, cyber security</title>
<desc id="d">Tanu Sree Reddy Gavinnolla. I find the gaps, then make sure they actually get closed. Findings ledger: 75 to 80 vulnerability assessments closed; EDR agent baselines standardised across 500+ endpoints; MITRE ATT&amp;CK detection logic, about 20% better fidelity; automated revocation and host isolation, about 30% lower MTTR; IDS and firewall tuning, 35% higher accuracy. Next role: open to opportunities.</desc>
<style>
.sans{font-family:-apple-system, BlinkMacSystemFont, 'Segoe UI', 'Helvetica Neue', Arial, sans-serif}
.mono{font-family:ui-monospace, SFMono-Regular, 'SF Mono', Menlo, Consolas, 'Liberation Mono', monospace}
.name{font-weight:700;letter-spacing:-1px}
.work{font-weight:500}
.o{opacity:0}
.c{opacity:1}
.c{animation:show .45s ease-out both}
.o{animation:hide .45s ease-out both}
@keyframes show{from{opacity:0}to{opacity:1}}
@keyframes hide{from{opacity:1}to{opacity:0}}
@media (prefers-reduced-motion:reduce){.c,.o{animation:none}}
</style>
<rect x=".5" y=".5" width="999" height="487" rx="14" fill="#F7F9FC" stroke="#D5DDEA"/>
<text class="sans name" x="48" y="90" font-size="46" fill="#0D1830">Tanu Sree Reddy Gavinnolla</text>
<text class="sans" x="48" y="126" font-size="20" fill="#3A4869">I find the gaps, then make sure they actually get closed.</text>
<text class="sans" x="48" y="178" font-size="13" fill="#56637F">id</text>
<text class="sans" x="120" y="178" font-size="13" fill="#56637F">work</text>
<text class="sans" x="580" y="178" font-size="13" fill="#56637F">result</text>
<text class="sans" x="852" y="178" font-size="13" fill="#56637F">status</text>
<line x1="48" y1="194" x2="952" y2="194" stroke="#E0E6F1" stroke-width="1.5"/>
<text class="mono" x="48" y="222" font-size="13" fill="#1F52C2">F-01</text>
<text class="sans work" x="120" y="222" font-size="15.5" fill="#0D1830">Vulnerability assessments with Qualys VMDR and Nmap</text>
<text class="mono" x="580" y="222" font-size="14" fill="#3A4869">75–80 assessments</text>
<g class="o" style="animation-delay:0.90s"><rect x="852" y="203" width="100" height="26" rx="13" fill="#FCE9C6"/><circle cx="869" cy="216" r="4" fill="#8A4A00"/><text class="mono" x="882" y="221" font-size="13" fill="#8A4A00">open</text></g>
<g class="c" style="animation-delay:0.90s"><rect x="852" y="203" width="100" height="26" rx="13" fill="#D9F3E6"/><circle cx="869" cy="216" r="4" fill="#0A6647"/><text class="mono" x="882" y="221" font-size="13" fill="#0A6647">closed</text></g>
<line x1="48" y1="238" x2="952" y2="238" stroke="#E0E6F1"/>
<text class="mono" x="48" y="266" font-size="13" fill="#1F52C2">F-02</text>
<text class="sans work" x="120" y="266" font-size="15.5" fill="#0D1830">EDR agent baselines standardised</text>
<text class="mono" x="580" y="266" font-size="14" fill="#3A4869">500+ endpoints</text>
<g class="o" style="animation-delay:1.45s"><rect x="852" y="247" width="100" height="26" rx="13" fill="#FCE9C6"/><circle cx="869" cy="260" r="4" fill="#8A4A00"/><text class="mono" x="882" y="265" font-size="13" fill="#8A4A00">open</text></g>
<g class="c" style="animation-delay:1.45s"><rect x="852" y="247" width="100" height="26" rx="13" fill="#D9F3E6"/><circle cx="869" cy="260" r="4" fill="#0A6647"/><text class="mono" x="882" y="265" font-size="13" fill="#0A6647">closed</text></g>
<line x1="48" y1="282" x2="952" y2="282" stroke="#E0E6F1"/>
<text class="mono" x="48" y="310" font-size="13" fill="#1F52C2">F-03</text>
<text class="sans work" x="120" y="310" font-size="15.5" fill="#0D1830">MITRE ATT&amp;CK detection logic</text>
<text class="mono" x="580" y="310" font-size="14" fill="#3A4869">~20% better fidelity</text>
<g class="o" style="animation-delay:2.00s"><rect x="852" y="291" width="100" height="26" rx="13" fill="#FCE9C6"/><circle cx="869" cy="304" r="4" fill="#8A4A00"/><text class="mono" x="882" y="309" font-size="13" fill="#8A4A00">open</text></g>
<g class="c" style="animation-delay:2.00s"><rect x="852" y="291" width="100" height="26" rx="13" fill="#D9F3E6"/><circle cx="869" cy="304" r="4" fill="#0A6647"/><text class="mono" x="882" y="309" font-size="13" fill="#0A6647">closed</text></g>
<line x1="48" y1="326" x2="952" y2="326" stroke="#E0E6F1"/>
<text class="mono" x="48" y="354" font-size="13" fill="#1F52C2">F-04</text>
<text class="sans work" x="120" y="354" font-size="15.5" fill="#0D1830">Automated revocation and host isolation</text>
<text class="mono" x="580" y="354" font-size="14" fill="#3A4869">~30% lower MTTR</text>
<g class="o" style="animation-delay:2.55s"><rect x="852" y="335" width="100" height="26" rx="13" fill="#FCE9C6"/><circle cx="869" cy="348" r="4" fill="#8A4A00"/><text class="mono" x="882" y="353" font-size="13" fill="#8A4A00">open</text></g>
<g class="c" style="animation-delay:2.55s"><rect x="852" y="335" width="100" height="26" rx="13" fill="#D9F3E6"/><circle cx="869" cy="348" r="4" fill="#0A6647"/><text class="mono" x="882" y="353" font-size="13" fill="#0A6647">closed</text></g>
<line x1="48" y1="370" x2="952" y2="370" stroke="#E0E6F1"/>
<text class="mono" x="48" y="398" font-size="13" fill="#1F52C2">F-05</text>
<text class="sans work" x="120" y="398" font-size="15.5" fill="#0D1830">IDS and firewall tuning, Palo Alto simulation</text>
<text class="mono" x="580" y="398" font-size="14" fill="#3A4869">35% higher accuracy</text>
<g class="o" style="animation-delay:3.10s"><rect x="852" y="379" width="100" height="26" rx="13" fill="#FCE9C6"/><circle cx="869" cy="392" r="4" fill="#8A4A00"/><text class="mono" x="882" y="397" font-size="13" fill="#8A4A00">open</text></g>
<g class="c" style="animation-delay:3.10s"><rect x="852" y="379" width="100" height="26" rx="13" fill="#D9F3E6"/><circle cx="869" cy="392" r="4" fill="#0A6647"/><text class="mono" x="882" y="397" font-size="13" fill="#0A6647">closed</text></g>
<rect x="32" y="417" width="936" height="38" rx="8" fill="#ECF1FA"/>
<text class="mono" x="48" y="442" font-size="13" fill="#1F52C2">F-06</text>
<text class="sans work" x="120" y="442" font-size="15.5" fill="#0D1830">Next role</text>
<text class="mono" x="580" y="442" font-size="14" fill="#3A4869">open to opportunities</text>
<rect x="852" y="423" width="100" height="26" rx="13" fill="#FCE9C6"/><circle cx="869" cy="436" r="4" fill="#8A4A00"/><text class="mono" x="882" y="441" font-size="13" fill="#8A4A00">open</text>
</svg>
